<?xml version="1.0" encoding="UTF-8"?><svg id="Layer_1" xmlns="http://www.w3.org/2000/svg" xmlns:xlink="http://www.w3.org/1999/xlink" viewBox="0 0 60 60"><defs><filter id="outer-glow-1" filterUnits="userSpaceOnUse"><feOffset dx="0" dy="0"/><feGaussianBlur result="blur" stdDeviation="5"/><feFlood flood-color="#3a3937" flood-opacity=".85"/><feComposite in2="blur" operator="in"/><feComposite in="SourceGraphic"/></filter></defs><g id="dark"><g filter="url(#outer-glow-1)"><path d="m30,15c-3.37,0-6.47,1.13-8.98,3,2.2.01,3.98,1.8,3.98,4s-1.79,4-4,4c-2.05,0-3.72-1.55-3.95-3.54-1.29,2.22-2.05,4.79-2.05,7.54,0,8.28,6.72,15,15,15s15-6.72,15-15-6.72-15-15-15Z" fill="#f2f2f2" stroke-width="0"/><path d="m21,26c2.21,0,4-1.79,4-4s-1.78-3.98-3.98-4c-1.61,1.2-2.96,2.72-3.98,4.46.23,1.99,1.9,3.54,3.95,3.54Z" fill="#e6e6e6" stroke-width="0"/></g><path d="m38.99,18.01c2.23,2.97,3.41,6.79,2.89,10.9-.84,6.72-6.25,12.13-12.97,12.97-4.11.51-7.93-.66-10.9-2.89,3.01,4.01,7.98,6.48,13.5,5.94,7.03-.69,12.72-6.39,13.41-13.41.54-5.52-1.92-10.49-5.94-13.5Z" fill="#ccc" opacity=".85" stroke-width="0"/><circle cx="34" cy="39" r="3" fill="#e6e6e6" stroke="#f2f2f2" stroke-miterlimit="10" stroke-width=".5"/><ellipse cx="20.57" cy="34.57" rx="2.6" ry="2.39" transform="translate(-2.44 1.57) rotate(-4.13)" fill="#e6e6e6" stroke-width="0"/><circle cx="41" cy="30" r="2" fill="#e6e6e6" stroke="#f2f2f2" stroke-miterlimit="10" stroke-width=".25"/><circle cx="26.35" cy="39.31" r="1.25" fill="#e6e6e6" stroke="#f2f2f2" stroke-miterlimit="10" stroke-width=".25"/><circle cx="34" cy="20" r="2" fill="#e6e6e6" stroke-width="0"/><ellipse cx="28.93" cy="26.57" rx="2.89" ry="2.64" transform="translate(-1.84 2.15) rotate(-4.13)" fill="#e6e6e6" stroke-width="0"/><ellipse cx="34.33" cy="32.08" rx="1.82" ry="1.95" transform="translate(-2.22 2.56) rotate(-4.13)" fill="#e6e6e6" stroke-width="0"/></g></svg>