<?xml version="1.0" encoding="UTF-8"?>
<svg id="PokeBall"
  xmlns="http://www.w3.org/2000/svg" viewBox="0 0 150 150">
  <g id="Ball">
    <path
      d="m.44,75h-.18v3.22c1.69,39.92,34.54,71.78,74.83,71.78s74.91-33.58,74.91-75H.44Z"
      fill="#e6e6e6" />
    <path
      d="m75,0C35.61,0,3.34,30.37.26,68.97v6.03h149.74C150,33.58,116.42,0,75,0Z"
      fill="#be1e2d" />
  </g>
  <line x1="4" y1="75" x2="146" y2="75" fill="none" stroke="#231f20"
    stroke-miterlimit="10" stroke-width="8" />
  <circle id="Button" cx="75" cy="75" r="17.5" fill="#d1d3d4" stroke="#231f20"
    stroke-miterlimit="10" stroke-width="8" />
  <g id="Ball_Shape">
    <path
      d="m75,8c36.94,0,67,30.06,67,67s-30.06,67-67,67S8,111.94,8,75,38.06,8,75,8m0-8C33.58,0,0,33.58,0,75s33.58,75,75,75,75-33.58,75-75S116.42,0,75,0h0Z"
      fill="#231f20" />
  </g>
  <path id="Shine"
    d="m16.31,61.01c1.64-4.1,3.91-8.86,7.07-13.9,3.89-6.2,8.03-11.06,11.62-14.7"
    fill="none" opacity=".65" stroke="#fff" stroke-linecap="round"
    stroke-miterlimit="10" stroke-width="8" />
  <path d="m42.1,24.95c.62-.75,1.5-1.63,2.68-2.42,1.13-.75,2.2-1.18,3.07-1.45"
    fill="none" opacity=".65" stroke="#fff" stroke-linecap="round"
    stroke-miterlimit="10" stroke-width="8" />
  <path
    d="m133.44,41c1.61,9.9,3.4,29.34-3.89,52-8.1,25.18-23.1,40.89-30.56,47.78,3.08-1.38,28.07-12.93,38.17-36.44,6.05-14.1,5.67-29.33,5.67-29.33-.07-2.39-.26-4.92-.61-7.56-1.46-10.94-5.17-19.87-8.78-26.44Z"
    fill="#231f20" opacity=".15" />
</svg>